<svg id="visual" viewBox="0 0 900 600" width="900" height="600" xmlns="http://www.w3.org/2000/svg" xmlns:xlink="http://www.w3.org/1999/xlink" version="1.1"><g transform="translate(456.13118658913294 289.7630748390203)"><path d="M117.3 -170.4C156.7 -157.1 196.6 -132.6 209.3 -97.7C222 -62.8 207.5 -17.5 194.2 23.1C180.8 63.7 168.6 99.6 145.6 126C122.5 152.4 88.6 169.3 50.3 188.4C11.9 207.6 -30.8 229 -77.7 230.7C-124.6 232.4 -175.7 214.4 -200 178C-224.4 141.5 -222.1 86.5 -223.7 35.8C-225.3 -14.9 -230.9 -61.5 -219.3 -105.7C-207.8 -150 -179 -191.9 -139.6 -205.2C-100.2 -218.4 -50.1 -203 -5.6 -194.3C38.9 -185.6 77.9 -183.6 117.3 -170.4" fill="#1b3582"></path></g></svg>