<svg id="visual" viewBox="0 0 900 600" width="900" height="600" xmlns="http://www.w3.org/2000/svg" xmlns:xlink="http://www.w3.org/1999/xlink" version="1.1"><path d="M0 77L21.5 76.5C43 76 86 75 128.8 73.3C171.7 71.7 214.3 69.3 257.2 69C300 68.7 343 70.3 385.8 73.3C428.7 76.3 471.3 80.7 514.2 74.5C557 68.3 600 51.7 642.8 44C685.7 36.3 728.3 37.7 771.2 43C814 48.3 857 57.7 878.5 62.3L900 67L900 0L878.5 0C857 0 814 0 771.2 0C728.3 0 685.7 0 642.8 0C600 0 557 0 514.2 0C471.3 0 428.7 0 385.8 0C343 0 300 0 257.2 0C214.3 0 171.7 0 128.8 0C86 0 43 0 21.5 0L0 0Z" fill="#212529" stroke-linecap="round" stroke-linejoin="miter"></path></svg>