<svg id="visual" viewBox="0 0 900 600" width="900" height="600" xmlns="http://www.w3.org/2000/svg" xmlns:xlink="http://www.w3.org/1999/xlink" version="1.1"><path d="M0 521L21.5 521.5C43 522 86 523 128.8 524.7C171.7 526.3 214.3 528.7 257.2 529C300 529.3 343 527.7 385.8 524.7C428.7 521.7 471.3 517.3 514.2 523.5C557 529.7 600 546.3 642.8 554C685.7 561.7 728.3 560.3 771.2 555C814 549.7 857 540.3 878.5 535.7L900 531L900 601L878.5 601C857 601 814 601 771.2 601C728.3 601 685.7 601 642.8 601C600 601 557 601 514.2 601C471.3 601 428.7 601 385.8 601C343 601 300 601 257.2 601C214.3 601 171.7 601 128.8 601C86 601 43 601 21.5 601L0 601Z" fill="#212529" stroke-linecap="round" stroke-linejoin="miter"></path></svg>